<svg width="24" height="27" viewBox="0 0 24 27" fill="none" xmlns="http://www.w3.org/2000/svg">
<path d="M14.1502 24.2512C13.8101 25.0071 13.5852 25.8273 13.4991 26.6875L20.6976 25.1541C21.0378 24.3984 21.2625 23.578 21.3488 22.7178L14.1502 24.2512Z" fill="#D4EBE8"/>
<path d="M22.83 19.4039C23.2518 18.4406 23.5306 17.3948 23.6374 16.2983L16.6842 17.8217V14.8932L22.8298 13.5478C23.2516 12.5846 23.5304 11.5388 23.6372 10.4423L16.684 11.9644V1.43244C15.6185 2.04869 14.6723 2.86899 13.9031 3.83658V12.5735L11.1223 13.1824V0C10.0569 0.616037 9.11063 1.43655 8.34146 2.40415V13.7911L2.11932 15.1531C1.69752 16.1164 1.41849 17.1622 1.31146 18.2586L8.34146 16.7196V20.4076L0.807441 22.0569C0.385637 23.0202 0.106818 24.0659 0 25.1624L7.88601 23.436C8.52797 23.2985 9.07972 22.9075 9.43844 22.3695L10.8847 20.1607V20.1603C11.0348 19.9317 11.1223 19.6562 11.1223 19.3595V16.1108L13.9031 15.5019V21.359L22.8298 19.4034L22.83 19.4039Z" fill="#D4EBE8"/>
</svg>
