<svg width="33" height="33" viewBox="0 0 33 33" fill="none" xmlns="http://www.w3.org/2000/svg">
<path d="M27.8738 9.49006L29.9542 6.23029L31.5843 7.27062L29.5039 10.5304L27.8738 9.49006ZM21.9589 6.86938L23.1989 3.2112L25.0301 3.83192L23.7901 7.4901L21.9589 6.86938ZM15.532 2.21167H17.4657V6.07908H15.532V2.21167ZM7.97375 3.8218L9.80497 3.20108L11.045 6.85932L9.21377 7.48004L7.97375 3.8218ZM1.41257 7.2743L3.04268 6.23397L5.12302 9.49374L3.49291 10.5341L1.41257 7.2743ZM25.2005 15.7476C25.2005 16.9259 24.9682 18.0674 24.5261 19.1206C24.585 19.1185 24.6439 19.1174 24.7029 19.1174C25.9941 19.1174 27.2081 19.6202 28.1212 20.5333L29.089 21.5011C30.554 20.3405 31.8785 19.0364 33 17.6599C30.4594 14.7415 27.1196 12.1002 23.4563 10.5173C24.5879 12.0154 25.2005 13.833 25.2005 15.7476ZM19.8745 23.7703C18.82 24.2133 17.6773 24.4461 16.4987 24.4461C14.1784 24.4461 11.9961 23.5453 10.3536 21.9096C8.70502 20.2678 7.79708 18.0794 7.79708 15.7476C7.79708 13.8306 8.41129 12.0108 9.54579 10.5114C9.08417 10.712 8.6294 10.9279 8.18227 11.159C5.33895 12.6271 2.54566 14.7562 0 17.6813C4.09146 22.3948 10.2388 26.383 16.4988 26.383C17.7634 26.383 19.0346 26.2205 20.2902 25.9214C19.9898 25.2454 19.8476 24.5097 19.8745 23.7703Z" fill="#315651"/>
<path d="M24.7024 21.0512C24.2622 21.0512 23.8371 21.1488 23.4514 21.3334L21.92 19.8019C22.765 18.6746 23.2664 17.2727 23.2664 15.7477C23.2664 11.9892 20.2229 8.98291 16.4984 8.98291C12.7713 8.98291 9.73047 11.9919 9.73047 15.7477C9.73047 19.5063 12.774 22.5125 16.4984 22.5125C18.0163 22.5125 19.4203 22.0134 20.5515 21.1681L22.0854 22.702C21.5719 23.78 21.7602 25.1115 22.6515 26.0028L27.4371 30.7884L31.5391 26.6864L26.7534 21.9008C26.2056 21.3529 25.4772 21.0512 24.7024 21.0512ZM16.4984 18.6483C14.8991 18.6483 13.5979 17.3471 13.5979 15.7477C13.5979 14.1483 14.8991 12.8472 16.4984 12.8472C18.0978 12.8472 19.399 14.1483 19.399 15.7477C19.399 17.3471 18.0978 18.6483 16.4984 18.6483Z" fill="#BA946C"/>
<path d="M16.4991 16.7145C17.0331 16.7145 17.4659 16.2816 17.4659 15.7476C17.4659 15.2136 17.0331 14.7808 16.4991 14.7808C15.9651 14.7808 15.5322 15.2136 15.5322 15.7476C15.5322 16.2816 15.9651 16.7145 16.4991 16.7145Z" fill="#315651"/>
</svg>
