<svg width="32" height="32" viewBox="0 0 32 32" fill="none" xmlns="http://www.w3.org/2000/svg">
<g clip-path="url(#clip0_85_429)">
<path d="M15.9909 17.9376C15.7293 17.9382 15.4701 17.8869 15.2284 17.7867C14.9867 17.6865 14.7673 17.5394 14.5828 17.3538L12.1253 14.8988C11.8689 15.7652 11.9064 16.692 12.2318 17.5349C12.5573 18.3777 13.1525 19.0892 13.9246 19.5584C14.6967 20.0276 15.6024 20.2281 16.5004 20.1287C17.3984 20.0293 18.2383 19.6356 18.8892 19.0089C19.54 18.3822 19.9652 17.5578 20.0985 16.6642C20.2318 15.7706 20.0656 14.858 19.626 14.0687C19.1863 13.2793 18.4979 12.6577 17.6679 12.3006C16.838 11.9435 15.9132 11.871 15.0378 12.0945L17.4397 14.4963C18.2178 15.2745 18.2116 16.5482 17.4222 17.342C17.2345 17.5305 17.0115 17.6802 16.7659 17.7824C16.5203 17.8846 16.257 17.9373 15.9909 17.9376Z" fill="#BA946C"/>
<path d="M7.67286 10.4449C6.57078 12.0877 5.98328 14.0217 5.98536 15.9999C5.98536 21.523 10.4791 26.0161 16.0016 26.0161C21.5241 26.0161 26.016 21.523 26.016 15.9999C26.016 10.4768 21.5229 5.98364 16.0004 5.98364C14.0649 5.98387 12.1716 6.5486 10.5522 7.60864L12.8247 9.88177C13.8042 9.36691 14.8939 9.09733 16.0004 9.09614C17.5175 9.09218 18.994 9.58675 20.2026 10.5038C21.4113 11.4208 22.2852 12.7095 22.69 14.1717C23.0948 15.6339 23.008 17.1885 22.443 18.5966C21.878 20.0046 20.8661 21.188 19.5629 21.9649C18.2597 22.7417 16.7374 23.0689 15.2301 22.8961C13.7228 22.7233 12.314 22.0601 11.2203 21.0085C10.1267 19.957 9.40886 18.5753 9.17714 17.0759C8.94543 15.5765 9.2127 14.0425 9.93786 12.7099L7.67286 10.4449Z" fill="#315651"/>
<path d="M16 9.59374e-07C13.2119 -0.000967904 10.4726 0.731915 8.0575 2.125L10.2206 4.2875C10.2678 4.33514 10.3124 4.38521 10.3544 4.4375C12.1109 3.57348 14.0425 3.12444 16 3.125C23.0994 3.125 28.875 8.90063 28.875 16C28.875 23.0994 23.0988 28.875 16 28.875C8.90125 28.875 3.125 23.0988 3.125 16C3.12576 13.9974 3.59673 12.0229 4.5 10.2356C4.45938 10.2013 4.41313 10.1731 4.375 10.135L2.1875 7.9475C0.753888 10.3888 -0.00132721 13.1689 1.75092e-06 16C1.75092e-06 24.8225 7.1775 32 16 32C24.8225 32 32 24.8225 32 16C32 7.1775 24.8225 9.59374e-07 16 9.59374e-07Z" fill="#315651"/>
<path d="M5.43748 9.07443C5.53228 9.15904 5.6548 9.20595 5.78185 9.20631C5.80767 9.20641 5.83342 9.2039 5.85873 9.19881L8.0731 8.72068L15.6431 16.2938C15.6886 16.3398 15.7427 16.3762 15.8023 16.4011C15.862 16.426 15.926 16.4388 15.9906 16.4388C16.0606 16.4382 16.1298 16.4238 16.1941 16.3964C16.2585 16.3689 16.3168 16.3289 16.3656 16.2788C16.4147 16.2328 16.4542 16.1775 16.4816 16.1161C16.509 16.0546 16.5238 15.9883 16.5252 15.921C16.5266 15.8538 16.5145 15.7869 16.4897 15.7244C16.4649 15.6618 16.4278 15.6049 16.3806 15.5569L8.80685 7.98381L9.28435 5.76943C9.29606 5.69434 9.29091 5.61759 9.26929 5.54473C9.24767 5.47188 9.21012 5.40474 9.15935 5.34818L6.47623 2.66443C6.44761 2.63106 6.40693 2.61039 6.3631 2.60693C6.30873 2.60693 6.26435 2.65068 6.24685 2.73193L5.76998 4.94631L4.7731 3.95006C4.72667 3.90357 4.67152 3.86669 4.61082 3.84153C4.55013 3.81637 4.48506 3.80342 4.41935 3.80342C4.35365 3.80342 4.28858 3.81637 4.22788 3.84153C4.16719 3.86669 4.11204 3.90357 4.0656 3.95006L4.05123 3.96506L4.03623 3.98006C3.94253 4.07382 3.8899 4.20094 3.8899 4.3335C3.8899 4.46605 3.94253 4.59317 4.03623 4.68693L5.03248 5.68693L2.8181 6.16131C2.6831 6.19006 2.6531 6.29256 2.7506 6.39068L5.43748 9.07443Z" fill="#BA946C"/>
</g>
<defs>
<clipPath id="clip0_85_429">
<rect width="32" height="32" fill="white"/>
</clipPath>
</defs>
</svg>
