<svg width="52" height="52" viewBox="0 0 52 52" fill="none" xmlns="http://www.w3.org/2000/svg">
<path fill-rule="evenodd" clip-rule="evenodd" d="M22.5006 22.7621L13.8994 13.9003L18.1565 7.12354L25.889 9.12181L25.8021 21.372L22.5006 22.7621ZM15.8108 13.7265L22.8481 21.0245L24.412 20.4163V10.2512L18.8516 8.86115L15.8108 13.7265Z" fill="#B28E68"/>
<path fill-rule="evenodd" clip-rule="evenodd" d="M29.1911 22.7621L25.8027 21.372V9.12181L33.5351 7.12354L37.7054 13.9003L29.1911 22.7621ZM27.3666 20.4163L28.8436 21.0245L35.9677 13.7265L32.9269 8.86115L27.3666 10.2512V20.4163Z" fill="#B28E68"/>
<path fill-rule="evenodd" clip-rule="evenodd" d="M44.0507 31.7982L42.5737 30.9294C40.141 29.4525 37.969 28.2361 36.0577 27.1936L33.625 25.8035H42.5737L44.0507 31.7982ZM39.1853 27.1936C39.9962 27.6569 40.8361 28.1493 41.7049 28.6705L41.3574 27.1936H39.1853Z" fill="#B28E68"/>
<path fill-rule="evenodd" clip-rule="evenodd" d="M42.5719 25.803H30.2349L28.9316 22.5016L37.7066 13.9004L44.4833 18.0707L42.5719 25.803ZM31.2774 24.3261H41.4425L42.7457 18.7657L37.8803 15.8118L30.6693 22.8491L31.2774 24.3261Z" fill="#B28E68"/>
<path fill-rule="evenodd" clip-rule="evenodd" d="M7.55859 31.7982L9.12244 25.8035H18.0711L15.5516 27.1936C13.6402 28.2361 11.4682 29.4525 9.12244 30.9294L7.55859 31.7982ZM10.2519 27.1936L9.81747 28.6705C10.6863 28.1493 11.5261 27.6569 12.337 27.1936H10.2519Z" fill="#B28E68"/>
<path fill-rule="evenodd" clip-rule="evenodd" d="M9.12135 25.803L7.20996 18.0707L13.8998 13.9004L22.7616 22.5016L21.4584 25.803H9.12135ZM8.86072 18.7657L10.2508 24.3261H20.4158L21.024 22.8491L13.726 15.7249L8.86072 18.7657Z" fill="#B28E68"/>
<path fill-rule="evenodd" clip-rule="evenodd" d="M22.5006 28.6998L13.8994 37.5617L18.1565 44.3384L25.889 42.3401L25.8021 30.0899L22.5006 28.6998ZM15.8108 37.7354L22.8481 30.4375L24.412 31.0456V41.2107L18.8516 42.6008L15.8108 37.7354Z" fill="#B28E68"/>
<path fill-rule="evenodd" clip-rule="evenodd" d="M29.1911 28.6998L25.8027 30.0899V42.3401L33.5351 44.3384L37.7054 37.5617L29.1911 28.6998ZM27.3666 31.0456L28.8436 30.4375L35.9677 37.7354L32.9269 42.6008L27.3666 41.2107V31.0456Z" fill="#B28E68"/>
<path fill-rule="evenodd" clip-rule="evenodd" d="M42.5719 25.6589H30.2349L28.9316 28.9603L37.7066 37.5615L44.4833 33.3913L42.5719 25.6589ZM31.2774 27.1358H41.4425L42.7457 32.6962L37.8803 35.6502L30.6693 28.6128L31.2774 27.1358Z" fill="#B28E68"/>
<path fill-rule="evenodd" clip-rule="evenodd" d="M9.12135 25.6589L7.20996 33.3913L13.8998 37.5615L22.7616 28.9603L21.4584 25.6589H9.12135ZM8.86072 32.6962L10.2508 27.1358H20.4158L21.024 28.6128L13.726 35.737L8.86072 32.6962Z" fill="#B28E68"/>
<path d="M48.2207 35.7949L48.1338 35.6211L49.5239 35.0999L49.6108 35.2736L48.2207 35.7949Z" fill="#B28E68"/>
<path d="M2.86705 37.4451L2.08511 35.8813C2.02719 35.7654 1.96931 35.6206 1.91139 35.4469C1.79555 35.1573 1.67968 34.8677 1.56384 34.5781C0.521274 31.8848 0 28.8439 0 25.8031C0 22.5016 0.608176 19.2002 1.91139 16.2462C1.91139 16.0725 1.94033 15.9277 1.99825 15.8118L2.08511 15.7249C4.69153 9.5564 9.55686 4.69109 15.7254 2.08467C15.8123 1.99779 16.073 1.9109 16.2467 1.9109C22.0677 -0.608645 29.3657 -0.608645 35.4473 1.9109C35.708 1.99778 35.8817 1.99779 35.9686 2.08467C42.1371 4.69109 46.9156 9.5564 49.6089 15.7249C49.6958 15.8987 49.6958 15.9856 49.7827 16.2462C50.999 19.2002 51.6071 22.5016 51.6071 25.8031C51.6071 28.8439 51.0859 31.8848 50.0433 34.5781C49.9564 34.9256 49.8696 35.1862 49.6958 35.5338L48.3926 34.9256C48.5084 34.6939 48.5953 34.4333 48.6532 34.1437C49.6379 31.4793 50.1302 28.6991 50.1302 25.8031C50.1302 22.5885 49.522 19.5477 48.3926 16.6806L48.2188 16.3331C45.7862 10.5121 41.1815 5.90742 35.3605 3.38788L35.0998 3.30099C35.0419 3.30099 34.984 3.27203 34.9261 3.21411C29.1919 0.868328 22.4152 0.868333 16.6811 3.30099C16.5074 3.30099 16.4204 3.38788 16.4204 3.38788C10.5125 5.90742 5.99477 10.4252 3.47523 16.1593L3.38832 16.5069L3.30146 16.6806C2.08513 19.5477 1.47698 22.5885 1.47698 25.8031C1.47698 28.4095 1.91136 31.016 2.69328 33.3617L2.7802 33.1011L3.04083 33.0142C4.77844 31.8848 6.51604 30.7553 8.34053 29.6259C10.7732 28.2358 12.9452 26.9326 14.8566 25.89C15.8123 25.3687 16.6811 24.8474 17.5499 24.413L17.7236 24.3261H20.417L21.112 22.5885L21.3726 22.5016C23.9791 21.1984 25.5429 20.5034 25.5429 20.5034L25.8036 20.3296L26.1511 20.5034C26.1511 20.5034 27.7149 21.1984 30.3214 22.5016L30.4951 22.5885L31.2771 24.3261H33.9704L34.1441 24.413C34.9261 24.8474 35.8817 25.3687 36.8374 25.89C38.7488 26.9326 40.9208 28.2358 43.2666 29.6259C45.178 30.7553 46.9156 31.8848 48.6532 33.0142L47.8713 34.2305C46.1337 33.1011 44.3961 32.0585 42.5716 30.9291C40.1389 29.4521 37.9669 28.2358 36.0555 27.1932C35.1867 26.6719 34.4048 26.2375 33.536 25.8031H30.2345L29.3657 23.6311C27.6281 22.7623 26.3249 22.241 25.8036 21.9804C25.2823 22.241 24.066 22.7623 22.2415 23.6311L21.4596 25.8031H18.0712C17.2893 26.2375 16.4204 26.6719 15.5516 27.1932C13.6402 28.2358 11.4683 29.4521 9.12248 30.9291C7.29799 31.9716 5.64726 33.0142 4.08341 34.0568L2.86705 37.4451Z" fill="#B28E68"/>
<path d="M2.86705 14.0969L2.08511 15.6607C2.02719 15.7766 1.96931 15.9214 1.91139 16.0951C1.79555 16.3847 1.67968 16.6743 1.56384 16.9639C0.521274 19.6572 0 22.6981 0 25.7389C0 29.0404 0.608176 32.3418 1.91139 35.2958C1.91139 35.4695 1.94033 35.6143 1.99825 35.7302L2.08511 35.8171C4.69153 41.9856 9.55686 46.8509 15.7254 49.4573C15.8123 49.5442 16.073 49.6311 16.2467 49.6311C22.0677 52.1506 29.3657 52.1506 35.4473 49.6311C35.708 49.5442 35.8817 49.5442 35.9686 49.4573C42.1371 46.8509 46.9156 41.9856 49.6089 35.8171C49.6958 35.6433 49.6958 35.5564 49.7827 35.2958C50.999 32.3418 51.6071 29.0404 51.6071 25.7389C51.6071 22.6981 51.0859 19.6572 50.0433 16.9639C49.9564 16.6164 49.8696 16.3558 49.6958 16.0082L48.3926 16.6164C48.5084 16.8481 48.5953 17.1087 48.6532 17.3983C49.6379 20.0627 50.1302 22.8429 50.1302 25.7389C50.1302 28.9535 49.522 31.9943 48.3926 34.8614L48.2188 35.2089C45.7862 41.0299 41.1815 45.6346 35.3605 48.1541L35.0998 48.241C35.0419 48.241 34.984 48.27 34.9261 48.3279C29.1919 50.6737 22.4152 50.6737 16.6811 48.241C16.5074 48.241 16.4204 48.1541 16.4204 48.1541C10.5125 45.6346 5.99477 41.1168 3.47523 35.3827L3.38832 35.0351L3.30146 34.8614C2.08513 31.9943 1.47698 28.9535 1.47698 25.7389C1.47698 23.1325 1.91136 20.526 2.69328 18.1803L2.7802 18.4409L3.04083 18.5278C4.77844 19.6572 6.51604 20.7867 8.34053 21.9161C10.7732 23.3062 12.9452 24.6094 14.8566 25.652C15.8123 26.1733 16.6811 26.6946 17.5499 27.129L17.7236 27.2158H20.417L21.112 28.9535L21.3726 29.0403C23.9791 30.3436 25.5429 31.0386 25.5429 31.0386L25.8036 31.2124L26.1511 31.0386C26.1511 31.0386 27.7149 30.3436 30.3214 29.0403L30.4951 28.9535L31.2771 27.2158H33.9704L34.1441 27.129C34.9261 26.6946 35.8817 26.1733 36.8374 25.652C38.7488 24.6094 40.9208 23.3062 43.2666 21.9161C45.178 20.7867 46.9156 19.6572 48.6532 18.5278L47.8713 17.3114C46.1337 18.4409 44.3961 19.4835 42.5716 20.6129C40.1389 22.0899 37.9669 23.3062 36.0555 24.3488C35.1867 24.8701 34.4048 25.3045 33.536 25.7389H30.2345L29.3657 27.9109C27.6281 28.7797 26.3249 29.301 25.8036 29.5616C25.2823 29.301 24.066 28.7797 22.2415 27.9109L21.4596 25.7389H18.0712C17.2893 25.3045 16.4204 24.8701 15.5516 24.3488C13.6402 23.3062 11.4683 22.0899 9.12248 20.6129C7.29799 19.5704 5.64726 18.5278 4.08341 17.4852L2.86705 14.0969Z" fill="#B28E68"/>
<path fill-rule="evenodd" clip-rule="evenodd" d="M25.8031 6.95046L14.0742 2.86706L15.7249 2.08513C15.8118 1.99825 16.0725 1.91136 16.2462 1.91136C19.2002 0.60815 22.4148 0 25.8031 0C29.1915 0 32.406 0.60815 35.4469 1.91136C35.7075 1.99824 35.8813 1.99825 35.9681 2.08513L37.3583 2.95394L35.6206 3.56209L25.8031 6.95046ZM18.1576 2.69328L25.8031 5.38659L33.4486 2.69328C28.3227 1.04255 22.936 1.04255 18.1576 2.69328Z" fill="#B28E68"/>
<path fill-rule="evenodd" clip-rule="evenodd" d="M25.8031 44.5303L14.0742 48.6137L15.7249 49.3956C15.8118 49.4825 16.0725 49.5694 16.2462 49.5694C19.2002 50.8726 22.4148 51.4807 25.8031 51.4807C29.1915 51.4807 32.406 50.8726 35.4469 49.5694C35.7075 49.4825 35.8813 49.4825 35.9681 49.3956L37.3583 48.5268L35.6206 47.9186L25.8031 44.5303ZM18.1576 48.7874L25.8031 46.0941L33.4486 48.7874C28.3227 50.4382 22.936 50.4382 18.1576 48.7874Z" fill="#B28E68"/>
<path fill-rule="evenodd" clip-rule="evenodd" d="M2.86706 37.4455L2.08511 35.8817C2.02719 35.7658 1.96931 35.621 1.91139 35.4473C1.79555 35.1577 1.67968 34.8681 1.56384 34.5785C0.521274 31.8852 0 28.8443 0 25.8035C0 22.502 0.608176 19.2006 1.91139 16.2466C1.91139 15.986 1.99823 15.8991 2.08511 15.7253L2.7802 14.4221L3.56209 15.986L6.95046 25.8035L2.86706 37.4455ZM2.69328 18.158C1.8824 20.5907 1.47698 23.1392 1.47698 25.8035C1.47698 28.4968 1.91136 31.0164 2.69328 33.449L5.38662 25.8035L2.69328 18.158Z" fill="#B28E68"/>
<path d="M48.2207 35.7949L48.1338 35.6211L49.5239 35.0999L49.6108 35.2736L48.2207 35.7949Z" fill="#B28E68"/>
<path d="M47.5243 33.8832L44.7441 25.8033L48.2194 15.7251L49.6094 16.3333L49.4357 16.5939L46.308 25.8033L48.9144 33.3619L47.5243 33.8832Z" fill="#B28E68"/>
<path d="M2.86599 17.1151L2.25781 15.725L2.51844 15.6382L11.3803 11.381L15.7243 2.25851H15.8112L15.7243 2.08477C15.8112 1.99789 16.0719 1.91099 16.2456 1.91099L17.7226 1.56348L16.9407 3.12732L12.5097 12.4236L2.86599 17.1151Z" fill="#B28E68"/>
<path d="M2.86599 33.5257L2.25781 34.9158L2.51844 35.0027L11.3803 39.2599L15.7243 48.3824H15.8112L15.7243 48.5561C15.8112 48.643 16.0719 48.7299 16.2456 48.7299L17.7226 49.0774L16.9407 47.5135L12.5097 38.2173L2.86599 33.5257Z" fill="#B28E68"/>
<path d="M49.1736 35.9682L48.4785 34.665L48.7391 34.5781L49.4342 35.8813L49.1736 35.9682Z" fill="#B28E68"/>
<path d="M48.2188 35.6211V35.5342H49.6957L48.2188 35.6211Z" fill="#B28E68"/>
<path d="M2.43158 35.9682L2.25781 35.8813L2.95285 34.5781L3.21353 34.665L2.43158 35.9682Z" fill="#B28E68"/>
<path d="M48.7407 17.1156L48.48 16.9419L39.1838 12.424L34.5791 2.95404L35.8823 2.17212L35.9692 2.43275L40.3132 11.3815L49.3488 15.7255L48.7407 17.1156Z" fill="#B28E68"/>
<path d="M48.7742 34.0787L48.5041 34.2373L38.9649 38.2168L33.8269 47.4083L35.0833 48.2634L35.1849 48.0082L40.033 39.3222L49.302 35.5013L48.7742 34.0787Z" fill="#B28E68"/>
</svg>
